<svg width="40" height="40" viewBox="0 0 40 40" fill="none" xmlns="http://www.w3.org/2000/svg">
    <circle cx="20" cy="20" r="20" fill="#BAD982"/>
    <path fill-rule="evenodd" clip-rule="evenodd" d="M16.7055 14.2929C17.096 14.6834 17.096 15.3166 16.7055 15.7071L13.4137 19H29C29.5523 19 30 19.4477 30 20C30 20.5128 29.614 20.9355 29.1166 20.9933L29 21H13.4132L16.7063 24.292C17.0968 24.6826 17.0968 25.3157 16.7063 25.7063C16.3158 26.0968 15.6826 26.0968 15.2921 25.7063L10.2922 20.708C9.90164 20.3175 9.90151 19.6844 10.292 19.2938L10.2987 19.2871L15.2913 14.2929C15.6818 13.9024 16.315 13.9024 16.7055 14.2929Z" fill="white"/>
</svg>
