<svg width="224" height="138" viewBox="0 0 224 138" fill="none" xmlns="http://www.w3.org/2000/svg">
    <rect width="224" height="138" fill="#333333"/>
    <path fill-rule="evenodd" clip-rule="evenodd" d="M86.5631 89.9204C86.176 89.5954 86.9649 87.6738 89.0286 84.9628C91.0922 82.2518 95.2744 78.6836 97.5389 77.362C99.8035 76.0404 105.648 74.5046 107.401 73.7259C109.154 72.9473 114.099 71.0185 116.364 70.9506C118.629 70.8828 123.161 70.0255 125.729 69.5612C128.297 69.0969 131.208 68.4397 132.526 68.4897C133.845 68.5397 134.44 68.0289 134.842 69.204C135.244 70.3791 134.842 71.7829 133.889 72.9044C132.936 74.0259 132.022 77.3334 129.758 77.7299C127.493 78.1264 124.37 77.0691 121.751 77.4013C119.133 77.7335 117.003 78.6586 115.155 79.155C113.307 79.6515 110.118 79.4479 107.751 79.9123C105.385 80.3766 100.907 81.6982 99.4456 82.7518C97.9845 83.8055 96.8888 83.6126 95.2159 84.4056C93.582 85.1827 92.016 86.0894 90.5334 87.1166C89.2222 88.0417 89.4377 88.0202 88.5209 88.8025C88.0861 89.1881 87.6314 89.5517 87.1585 89.8919C86.9685 90.0419 86.859 90.1705 86.5631 89.9204ZM88.3894 93.2636C89.4632 94.0066 90.7927 93.2315 91.9652 92.7314C93.2663 92.2397 94.6284 91.919 96.0158 91.7778C102.503 90.8455 109.201 89.9311 115.48 92.0528C116.872 92.5207 118.23 93.1243 119.644 93.5101C120.572 93.7565 121.653 93.8673 122.376 93.1279C122.736 92.6865 123.028 92.197 123.245 91.6742C124.133 90.0061 125.645 88.8846 126.489 87.1844C126.693 86.8337 126.772 86.4268 126.715 86.0272C126.562 85.3807 125.882 85.1628 125.316 85.0664C119.253 84.0555 113.088 84.3234 106.977 84.8306C105.274 84.9455 103.579 85.165 101.904 85.4878C99.3469 86.0272 96.8851 87.0094 94.4306 87.9881C93.6056 88.2776 92.8252 88.6766 92.1113 89.1739C91.742 89.497 91.3489 89.7931 90.9352 90.0597C90.2814 90.4169 89.5253 90.4169 88.8642 90.7455C88.2031 91.0741 87.626 91.9671 87.9474 92.7207C88.0456 92.9404 88.2051 93.1286 88.4076 93.2636H88.3894ZM109.139 95.5567C102.696 93.9601 97.7252 93.3672 91.4977 94.5316C91.062 94.5552 90.671 94.8006 90.4677 95.1781C90.3156 95.6334 90.4181 96.1333 90.7379 96.4961C91.0255 96.7815 91.3843 96.9884 91.7789 97.0962C92.4619 97.339 93.145 97.5819 93.8389 97.7569C94.7703 97.9891 95.7163 98.0927 96.6514 98.2963C98.6972 98.7517 100.623 99.6204 102.305 100.847C103.083 101.404 103.829 102.04 104.632 102.532C105.162 102.857 105.728 103.122 106.236 103.465C107.587 104.354 108.694 105.761 110.034 106.679C111.375 107.597 113.183 107.869 114.308 106.565C114.595 106.194 114.84 105.794 115.038 105.372L115.937 103.675C116.245 103.197 116.405 102.641 116.397 102.075C116.353 101.782 116.258 101.498 116.116 101.236C114.629 98.1534 112.003 96.0211 109.194 95.6067L109.139 95.5567ZM45.6147 48.7305C46.5826 48.7305 48.04 48.7876 49.1321 48.9055C49.798 48.9693 50.3771 49.3787 50.6479 49.977C50.8415 50.4595 51.0037 50.9534 51.1337 51.4558C51.1958 51.6344 51.2542 51.6951 51.3747 51.6665L52.0431 51.5451C52.2258 51.5165 52.2842 51.4879 52.2842 51.3379C52.2258 50.6878 52.1052 49.2627 52.1052 48.0769C52.1052 47.3053 52.1052 45.348 52.1637 44.8622C52.1966 44.6837 52.1052 44.6265 51.9811 44.6265L51.1958 44.5658C51.1297 44.5591 51.064 44.5817 51.0166 44.6273C50.9693 44.6729 50.9453 44.7368 50.951 44.8015C50.8959 45.3798 50.7311 45.943 50.4653 46.4624C50.2459 47.0496 49.7054 47.4648 49.07 47.5339C47.9216 47.6411 46.7683 47.6912 45.6147 47.684L45.6732 39.1116L50.2826 39.2295C51.1049 39.309 51.8967 39.5757 52.5947 40.0082C53.3252 40.4225 55.8089 43.1514 55.9294 43.3299C56.05 43.5085 56.1121 43.5085 56.2034 43.48L56.7476 43.2406C56.8681 43.1835 56.901 43.0942 56.8389 42.9156C56.7184 42.6192 55.5642 38.5866 55.4436 38.2008C55.4364 38.1457 55.4068 38.0957 55.3614 38.0621C55.3161 38.0285 55.2589 38.0141 55.2026 38.0223C55.0492 38.0223 54.4721 38.0508 53.9899 38.0508C52.6531 38.0508 45.6768 38.1115 44.3436 38.1115H43.4889C41.0016 38.1401 39.9095 38.0223 39.2447 38.0223C39.0913 38.0223 39.0621 38.083 39.0621 38.2294V39.0009C39.0621 39.1509 39.1242 39.2081 39.2447 39.2081H40.3953C41.3047 39.2081 41.6116 39.4438 41.7321 40.2475C41.7905 40.6618 41.8526 44.3408 41.8526 46.7696V56.7385C41.8526 57.835 41.7321 58.0136 40.3368 58.0136H39.3032C39.0621 58.0136 39 58.0707 39 58.2493V58.9637C39 59.1423 39.0621 59.203 39.2447 59.203C39.5187 59.203 39.9424 59.1744 40.5487 59.1423C41.155 59.1101 42.0097 59.1137 43.1273 59.1137C48.2117 59.1244 51.3163 59.1244 53.2266 59.1244C55.1368 59.1244 55.7833 59.1851 55.9258 59.1851C56.2268 59.2217 56.5131 59.0475 56.6125 58.7672L58.0735 54.3204C58.1356 54.1703 58.1063 54.081 58.015 54.0239L57.5292 53.7274C57.4087 53.6667 57.3174 53.6953 57.1932 53.8453C56.6198 54.5597 54.9213 56.5134 54.3735 56.9885C53.6421 57.5323 52.7761 57.8762 51.8642 57.985C51.2579 58.0422 49.8626 58.1029 49.3074 58.1029C48.5113 58.121 47.716 58.0406 46.9406 57.8636C46.2722 57.6886 45.7279 57.0921 45.7279 55.5526C45.7279 55.0169 45.6658 52.1094 45.6366 50.5092L45.6147 48.7305ZM79.3129 52.8202C79.1302 52.763 79.0681 52.8202 78.9476 52.9416C78.5239 54.0668 76.5808 57.6278 74.8824 57.8636C73.6697 58.0136 71.4855 58.0136 69.7688 58.0136H68.0704C67.9499 56.7349 67.9499 50.3307 67.9499 49.7985V47.2482C67.9499 45.173 68.0704 40.7225 68.0704 40.3082C68.0704 39.5081 68.1909 39.2117 69.1041 39.2117H70.7404C70.9815 39.2117 71.0436 39.0938 71.0436 38.9723V38.2937C71.0436 38.1437 70.9815 38.0258 70.7404 38.0258C70.4993 38.0258 69.2246 38.1151 65.9483 38.1151C63.1578 38.1151 62.0657 38.0258 61.7625 38.0258C61.5799 38.0258 61.5214 38.083 61.5214 38.2616V38.9438C61.5131 39.0826 61.6206 39.2021 61.7625 39.2117H63.0372C63.8262 39.2117 63.9467 39.5081 64.0052 40.2832C64.0672 40.7868 64.1293 43.93 64.1293 45.8302V47.4911C64.1293 49.277 64.0052 56.6849 64.0052 57.2206C64.0052 57.6028 63.8262 58.0207 62.7341 58.0207H61.5397C61.3571 58.0207 61.3571 58.0779 61.3571 58.2565V58.9387C61.3571 59.1458 61.3571 59.2066 61.5981 59.2066C61.9634 59.2066 63.0591 59.1173 65.7839 59.1173C68.8776 59.1173 77.6144 59.1744 78.3997 59.2066C78.5824 58.4065 79.795 53.4917 79.9192 53.3024C79.9192 53.1238 79.9192 53.0667 79.8571 53.0059L79.3129 52.8202ZM89.1199 47.1875C89.1199 46.8303 89.182 40.3046 89.182 40.0082C89.182 39.4438 89.6678 39.2081 90.3325 39.2081H91.4867C91.5522 39.2136 91.6168 39.1905 91.6633 39.1451C91.7098 39.0996 91.7334 39.0364 91.7278 38.9723V38.2901C91.7278 38.1401 91.6693 38.0223 91.4867 38.0223C91.0594 38.0223 90.0914 38.1115 87.1804 38.1115C84.2072 38.1115 82.6293 38.0223 82.2641 38.0223C82.1436 38.0223 82.0851 38.0794 82.0851 38.2294V39.0009C82.0851 39.1474 82.1436 39.2081 82.3262 39.2081H83.9041C84.7515 39.2081 85.0546 39.5045 85.1459 40.2153C85.1752 40.6011 85.2372 45.9302 85.2372 46.6446V48.7198C85.2372 50.3235 85.1752 56.7313 85.1167 57.1456C84.9962 57.9457 84.3278 58.0064 83.7215 58.0064H82.5088C82.3262 58.0064 82.2641 58.0636 82.2641 58.185V58.9851C82.2641 59.1316 82.3262 59.1923 82.5088 59.1923C82.812 59.1923 84.1451 59.103 87.1804 59.103C90.0294 59.103 91.242 59.1923 91.6072 59.1923C91.7899 59.1923 91.9104 59.1316 91.9104 58.953V58.2136C91.911 58.1533 91.8847 58.0958 91.8384 58.056C91.7921 58.0162 91.7304 57.9981 91.6693 58.0064H90.3946C89.6641 58.0064 89.182 57.8886 89.182 56.9349C89.182 56.6063 89.1199 49.7913 89.1199 49.4877V47.1875ZM97.097 52.4344C96.9764 52.4344 96.9472 52.4952 96.9144 52.6738C96.8559 53.0309 96.4286 57.835 96.3701 58.1886C96.3701 58.4851 96.4907 58.6637 96.7354 58.6637C96.9801 58.6637 97.1006 58.6065 97.2833 58.3065C97.4659 58.0064 97.5864 57.7707 97.769 57.7707C97.9517 57.7707 98.1343 57.8921 98.4995 58.1279C99.7122 59.0173 101.17 59.5566 103.657 59.5566C107.675 59.5566 110.085 56.592 110.085 52.9738C110.085 50.9879 109.541 49.7413 108.57 48.7341C107.419 47.5447 105.962 46.9482 104.187 46.4195C102.974 46.0624 101.265 45.348 100.487 44.5801C99.756 43.8086 99.6355 42.9192 99.6355 41.9119C99.7299 40.1669 101.251 38.8261 103.036 38.9152C104.225 38.848 105.381 39.3055 106.188 40.1618C107.04 41.064 107.682 42.1364 108.069 43.3049C108.081 43.3704 108.121 43.4278 108.179 43.4621C108.237 43.4964 108.308 43.5042 108.372 43.4835L108.858 43.3335C108.966 43.324 109.047 43.2323 109.041 43.1263C109.041 42.8299 108.555 38.6795 108.555 38.2044C108.555 37.9044 108.493 37.7294 108.31 37.7294C108.15 37.7246 107.995 37.7885 107.887 37.9044L107.492 38.2901C107.328 38.4612 107.065 38.4996 106.857 38.383C105.647 37.8897 104.346 37.6464 103.036 37.6686C101.275 37.6686 99.9423 38.083 98.7297 39.0974C97.371 40.0588 96.5775 41.608 96.6039 43.2478C96.6039 45.0587 97.0897 46.541 98.1197 47.4911C99.5807 48.7948 101.579 49.6342 102.55 49.9913C105.764 51.1807 107.039 52.0701 107.039 54.799C107.039 57.2599 104.734 58.2672 103.094 58.2672C101.466 58.2802 99.9469 57.4698 99.0766 56.1241C98.3949 55.1168 97.998 53.9511 97.9261 52.7452C97.9261 52.5666 97.864 52.5059 97.7435 52.5059L97.097 52.4344ZM121.331 46.7696C121.331 47.3661 121.331 56.442 121.24 57.2135C121.218 57.4503 121.1 57.6684 120.911 57.8189C120.723 57.9693 120.481 58.0395 120.239 58.0136H118.512C118.391 58.0136 118.3 58.0707 118.3 58.2493V58.9315C118.3 59.1387 118.358 59.1994 118.541 59.1994C118.965 59.1994 120.239 59.1101 123.333 59.1101C126.62 59.1101 127.581 59.1994 127.884 59.1994C128.125 59.1994 128.187 59.0816 128.187 58.903V58.2815C128.187 58.1315 128.125 58.0136 128.005 58.0136H126.244C125.514 58.0136 125.214 57.4207 125.214 55.1562V39.3545H126.061C127.157 39.3545 129.886 39.4153 130.733 39.8903C131.584 40.4832 132.705 42.3906 133.129 43.2121C133.22 43.3907 133.282 43.48 133.403 43.4478L134.009 43.2406C134.101 43.2121 134.163 43.1513 134.134 42.9763C133.889 41.5476 133.282 37.8722 133.22 37.34C133.162 36.9829 133.1 36.865 132.917 36.865C132.735 36.865 132.614 36.9829 132.373 37.1614C131.705 37.5651 130.959 37.8279 130.182 37.933C128.786 37.9937 127.512 38.1115 124.177 38.1115H122.537C119.567 38.1115 118.293 37.9937 116.653 37.933C115.885 37.9713 115.137 37.6911 114.593 37.1614C114.41 36.9829 114.289 36.865 114.107 36.865C113.986 36.865 113.804 36.9829 113.742 37.3972L112.281 42.8549C112.251 43.0049 112.281 43.0942 112.405 43.1513L113.011 43.3621C113.161 43.4192 113.252 43.3014 113.343 43.1513C113.92 42.1441 115.071 40.1868 116.043 39.7724C117.317 39.3545 119.502 39.3545 120.473 39.3545H121.32L121.331 46.7696ZM142.26 40.6332C144.324 38.6759 146.081 38.9688 146.643 38.9688C149.565 38.9688 154.043 42.6477 154.043 49.1162C154.043 51.6165 153.072 58.2493 146.947 58.2493C144.39 58.2493 139.547 55.5205 139.547 47.809C139.547 45.4373 140.423 42.3798 142.275 40.6332H142.26ZM153.923 40.0367C151.909 38.4242 149.365 37.5814 146.764 37.6651C144.156 37.6651 140.88 38.258 138.21 41.4619C136.45 43.5308 135.465 46.1254 135.419 48.8162C135.419 53.1024 137.695 56.317 139.85 57.5957C141.921 58.82 144.283 59.4946 146.702 59.553C151.253 59.553 153.861 57.7171 155.804 55.3419C157.294 53.482 158.085 51.1784 158.047 48.8162C158.047 44.7837 156.198 41.8476 153.923 40.0367ZM165.691 42.0834H165.874C166.239 42.5013 171.09 48.4305 171.513 48.8484C171.879 49.3234 174.245 52.1094 176.368 54.6597C178.249 56.8563 179.885 58.6958 180.13 58.9923C180.397 59.2745 180.767 59.4436 181.16 59.4637C181.525 59.4637 181.525 59.0494 181.525 58.6351V50.8057C181.525 47.7804 181.828 42.7977 181.978 40.7797C182.069 39.6831 182.372 39.2081 182.979 39.2081H183.83C183.95 39.2081 184.012 39.0902 184.012 38.9116V38.2294C184.012 38.1401 183.95 38.0223 183.709 38.0223C183.344 38.0223 182.613 38.1115 180.787 38.1115C178.723 38.1115 177.752 38.0223 177.387 38.0223C177.146 38.0223 177.146 38.0794 177.146 38.258V38.9402C177.146 39.0902 177.146 39.2081 177.328 39.2081H178.3C179.034 39.1862 179.692 39.6469 179.907 40.3332C180.057 40.8404 180.177 43.7443 180.239 44.873C180.298 46.3552 180.298 47.8411 180.298 50.4485V53.5346H180.177C179.695 52.9416 174.961 47.1875 174.538 46.7124C173.931 45.8802 167.985 38.5866 167.682 38.2901C167.493 38.0958 167.224 37.997 166.951 38.0223C166.769 38.0223 166.495 38.0508 166.1 38.0508C165.706 38.0508 165.282 38.1115 164.767 38.1115C163.434 38.1115 162.612 38.1115 162.068 38.0794C161.524 38.0473 161.279 38.0223 161.129 38.0223C161.079 38.0149 161.028 38.0314 160.992 38.0666C160.956 38.1018 160.939 38.1516 160.947 38.2008V39.0009C160.943 39.0521 160.96 39.1028 160.994 39.1416C161.028 39.1805 161.077 39.2044 161.129 39.2081H162.097C163.434 39.2081 164.464 40.5725 164.464 42.3513V46.1195C164.464 50.8629 164.281 55.0169 164.252 55.549C164.099 57.3599 163.675 58.0136 162.886 58.0136H161.856C161.757 58.0173 161.677 58.0951 161.674 58.1922V58.9315C161.674 59.1387 161.732 59.1994 161.856 59.1994C162.159 59.1994 164.219 59.1101 165.008 59.1101C166.162 59.1101 167.981 59.1994 168.296 59.1994C168.54 59.1994 168.54 59.1387 168.54 58.9601V58.2779C168.54 58.1315 168.54 58.0136 168.296 58.0136H167.507C166.411 58.0136 166.046 57.2992 165.991 55.8169C165.932 54.899 165.688 50.745 165.688 45.7052L165.691 42.0834Z" fill="white"/>
</svg>
