<svg width="40" height="40" viewBox="0 0 40 40" fill="none" xmlns="http://www.w3.org/2000/svg">
    <circle r="20" transform="matrix(-1 0 0 1 20 20)" fill="#BAD982"/>
    <path fill-rule="evenodd" clip-rule="evenodd" d="M23.2945 14.2929C22.904 14.6834 22.904 15.3166 23.2945 15.7071L26.5863 19H11C10.4477 19 10 19.4477 10 20C10 20.5128 10.386 20.9355 10.8834 20.9933L11 21H26.5868L23.2937 24.292C22.9032 24.6826 22.9032 25.3157 23.2937 25.7063C23.6842 26.0968 24.3174 26.0968 24.7079 25.7063L29.7078 20.708C30.0984 20.3175 30.0985 19.6844 29.708 19.2938L29.7013 19.2871L24.7087 14.2929C24.3182 13.9024 23.685 13.9024 23.2945 14.2929Z" fill="white"/>
</svg>
